<svg xmlns="http://www.w3.org/2000/svg" version="1.1" xmlns:xlink="http://www.w3.org/1999/xlink" width="512" height="512" x="0" y="0" viewBox="0 0 32 32" style="enable-background:new 0 0 512 512" xml:space="preserve" class=""><g><g data-name="Layer 2"><path d="M2.75 31a1.59 1.59 0 0 1-1.54-1.77l.3-5.87A5.28 5.28 0 0 1 2.71 21l18.9-18.9a3.1 3.1 0 0 1 4.39 0l4.11 4.11a3.09 3.09 0 0 1 0 4.38L11.2 29.49a3.25 3.25 0 0 1-2.25 1.18L2.9 31zm.73-7.29L3.22 29 9 28.66a2.42 2.42 0 0 0 .76-.6l18.9-18.9a1.09 1.09 0 0 0 0-1.55l-4.09-4.09a1.1 1.1 0 0 0-1.55 0L4.13 22.41a3.43 3.43 0 0 0-.65 1.3z" fill="#d4d4d4" opacity="1"></path><path d="m18.15 7.016 1.398-1.43 7.15 6.99-1.398 1.43z" fill="#d4d4d4" opacity="1"></path></g></g></svg>