<svg xmlns="http://www.w3.org/2000/svg" version="1.1" xmlns:xlink="http://www.w3.org/1999/xlink" width="512" height="512" x="0" y="0" viewBox="0 0 492.79 492.79" style="enable-background:new 0 0 512 512" xml:space="preserve" class=""><g><path d="m448.542 372.506-36.269-24.166c10.429.463 22.089-.259 33.658-3.131a85.74 85.74 0 0 0 8.734-2.653c23.325-8.54 31.031-37.319 17.058-57.223a526.22 526.22 0 0 0-5.485-7.628 2291.188 2291.188 0 0 1-5.905-8.104c-4.916-6.792-8.743-12.298-12.43-17.983-19.498-30.059-30.191-58.493-30.813-90.574-.387-15.447-4.497-37.028-15.956-59.016-9.74-18.689-23.557-34.174-41.989-44.971-21.111-10.327-40.078-15.93-60.418-16.079l-1.011.03c-.255-.008-.593-.018-1.085-.031-4.693.035-9.284.392-13.911 1.047C261.99 16.396 230.294 0 194.767 0h-19.62c-62.443 0-113.07 50.635-113.07 113.07v91.73c0 35.327 15.208 68.049 40.96 91.114v43.078l-51.593 16.236-1.922.712C19.874 368.65.637 397.824.637 430.08v42.23c0 11.342 9.218 20.524 20.559 20.48l327.261-1.268c.113.002.222.017.335.017h122.88c11.311 0 20.48-9.169 20.48-20.48v-24.084c.001-31.718-16.176-60.169-43.61-74.469zM41.597 430.08c0-15.564 9.111-29.681 23.223-36.121l64.845-20.406a20.48 20.48 0 0 0 14.332-19.536v-67.748c0-6.42-3.01-12.468-8.131-16.338-20.58-15.554-32.828-39.297-32.828-65.131v-91.73c0-39.815 32.29-72.11 72.11-72.11h19.62c24.904 0 46.862 12.633 59.819 31.837.394.918.852 1.823 1.394 2.706 6.142 9.99 9.803 20.916 10.681 32.253.015.21.034.419.048.629a71.74 71.74 0 0 1 .153 4.09c.002.205.011.409.011.615v91.73c0 25.816-12.251 49.558-32.828 65.111a20.482 20.482 0 0 0-8.132 16.338v67.748a20.482 20.482 0 0 0 14.682 19.643l64.647 19.099c10.332 4.766 17.947 13.662 21.25 24.213a39.645 39.645 0 0 1 1.821 11.838v21.831L41.597 451.75v-21.67zm409.596 20.498h-81.916V428.81a80.528 80.528 0 0 0-4.267-25.872c-7.223-21.322-23.2-39.094-44.629-48.272l-2.261-.815-51.244-15.139v-42.798c25.753-23.065 40.96-55.787 40.96-91.114v-91.73c0-1.307-.03-2.607-.074-3.904l-.003-.085a112.939 112.939 0 0 0-4.201-26.921c11.551.929 23.437 4.746 36.283 10.989 9.953 5.901 18.605 15.598 24.969 27.809 4.691 9.001 7.866 18.839 9.745 28.706 1.114 5.847 1.533 10.22 1.585 12.291.788 40.648 14.09 76.018 37.399 111.954 4.124 6.358 8.323 12.399 13.614 19.709-.745-1.029 5.027 6.886 8.648 11.902-7.339 1.784-15.554 2.229-22.487 1.862a43.373 43.373 0 0 1-1.156-.073l-2.49-.083-33.403.922c-20.118-.008-33.777 21.723-24.577 40.354 4.625 9.286 10.919 16.907 19.254 21.519l55.87 37.226 2.197 1.275c13.855 6.928 22.184 21.34 22.184 38.453v3.603z" fill="#d4d4d4" opacity="1" data-original="#000000"></path></g></svg>